# xmcd
# Copyright (C) 1995-1998 Ti Kan
#
# Track frame offsets:
#       210
#       18327
#       29857
#       48268
#       64936
#       83997
#       97277
#       114447
#       124035
#       139007
#       163605
#       180165
#       201125
#       213415
#       224472
#       245365
#       258165
#
# Disc length: 3668 seconds
#
# Revision: 0
# Processed by: cddbd v1.5.1PL0 Copyright (c) Steve Scherf et al.
# Submitted via: CD-Transfer v1.0
#
DISCID=f40e5211
DTITLE=Caravane - 
DYEAR=98
DGENRE=
TTITLE0=Isi si tschai
TTITLE1=Swing pour Rolf
TTITLE2=Bossa Dorado
TTITLE3=Tzigany
TTITLE4=La Foule
TTITLE5=Dinah
TTITLE6=Tut hi tschi, man hi tschi
TTITLE7=Dupont Swing
TTITLE8=Pour les gens du voyage
TTITLE9=Summertime
TTITLE10=Tiger Rag
TTITLE11=I'm confessin'
TTITLE12=Rosetta
TTITLE13=Walzer Wasser
TTITLE14=Tears
TTITLE15=Upper Village
TTITLE16=Tu hal net kai
EXTD=
EXTT0=
EXTT1=
EXTT2=
EXTT3=
EXTT4=
EXTT5=
EXTT6=
EXTT7=
EXTT8=
EXTT9=
EXTT10=
EXTT11=
EXTT12=
EXTT13=
EXTT14=
EXTT15=
EXTT16=
PLAYORDER=
